ffmpeg version 3.4.2 Copyright (c) 2000-2018 the FFmpeg developers
  built with Apple LLVM version 9.0.0 (clang-900.0.39.2)
  configuration: --prefix=/usr/local/Cellar/ffmpeg/3.4.2 --enable-shared --enable-pthreads --enable-version3 --enable-hardcoded-tables --enable-avresample --cc=clang --host-cflags= --host-ldflags= --disable-jack --enable-gpl --enable-libmp3lame --enable-libx264 --enable-libxvid --enable-opencl --enable-videotoolbox --disable-lzma
  libavutil      55. 78.100 / 55. 78.100
  libavcodec     57.107.100 / 57.107.100
  libavformat    57. 83.100 / 57. 83.100
  libavdevice    57. 10.100 / 57. 10.100
  libavfilter     6.107.100 /  6.107.100
  libavresample   3.  7.  0 /  3.  7.  0
  libswscale      4.  8.100 /  4.  8.100
  libswresample   2.  9.100 /  2.  9.100
  libpostproc    54.  7.100 / 54.  7.100
Input #0, image2pipe, from 'pipe:':
  Duration: N/A, bitrate: N/A
    Stream #0:0: Video: ppm, rgb24, 320x240, 20 fps, 20 tbr, 20 tbn, 20 tbc
Stream mapping:
  Stream #0:0 -> #0:0 (ppm (native) -> h264 (libx264))
[libx264 @ 0x7f8e7c002800] using cpu capabilities: MMX2 SSE2Fast SSSE3 SSE4.2 AVX FMA3 BMI2 AVX2
[libx264 @ 0x7f8e7c002800] profile High, level 1.3
[libx264 @ 0x7f8e7c002800] 264 - core 152 r2854 e9a5903 - H.264/MPEG-4 AVC codec - Copyleft 2003-2017 - http://www.videolan.org/x264.html - options: cabac=1 ref=3 deblock=1:0:0 analyse=0x3:0x113 me=hex subme=7 psy=1 psy_rd=1.00:0.00 mixed_ref=1 me_range=16 chroma_me=1 trellis=1 8x8dct=1 cqm=0 deadzone=21,11 fast_pskip=1 chroma_qp_offset=-2 threads=7 lookahead_threads=1 sliced_threads=0 nr=0 decimate=1 interlaced=0 bluray_compat=0 constrained_intra=0 bframes=3 b_pyramid=2 b_adapt=1 b_bias=0 direct=1 weightb=1 open_gop=0 weightp=2 keyint=250 keyint_min=20 scenecut=40 intra_refresh=0 rc_lookahead=40 rc=abr mbtree=1 bitrate=400 ratetol=1.0 qcomp=0.60 qpmin=0 qpmax=69 qpstep=4 ip_ratio=1.40 aq=1:1.00
Output #0, mp4, to './mission_records/a82f1237-1e5f-4c03-8f24-019be9f7cc35/video.mp4':
  Metadata:
    encoder         : Lavf57.83.100
    Stream #0:0: Video: h264 (libx264) (avc1 / 0x31637661), yuv420p, 320x240, q=-1--1, 400 kb/s, 20 fps, 10240 tbn, 20 tbc
    Metadata:
      encoder         : Lavc57.107.100 libx264
    Side data:
      cpb: bitrate max/min/avg: 0/0/400000 buffer size: 0 vbv_delay: -1
frame=   31 fps=0.0 q=0.0 size=       0kB time=00:00:00.00 bitrate=N/A speed=   0x    frame=   40 fps= 36 q=0.0 size=       0kB time=00:00:00.00 bitrate=N/A speed=   0x    frame=   48 fps= 30 q=0.0 size=       0kB time=00:00:00.00 bitrate=N/A speed=   0x    frame=   56 fps= 26 q=26.0 size=       0kB time=00:00:00.10 bitrate=   3.8kbits/s speed=0.0473x    frame=   66 fps= 25 q=26.0 size=       0kB time=00:00:00.60 bitrate=   0.6kbits/s speed=0.225x    frame=   75 fps= 23 q=26.0 size=       0kB time=00:00:01.05 bitrate=   0.4kbits/s speed=0.327x    frame=   85 fps= 23 q=25.0 size=       0kB time=00:00:01.55 bitrate=   0.2kbits/s speed=0.411x    frame=   93 fps= 22 q=26.0 size=       0kB time=00:00:01.95 bitrate=   0.2kbits/s speed=0.456x    frame=  102 fps= 21 q=26.0 size=       0kB time=00:00:02.40 bitrate=   0.2kbits/s speed=0.502x    frame=  110 fps= 21 q=26.0 size=       0kB time=00:00:02.80 bitrate=   0.1kbits/s speed=0.53x    frame=  110 fps= 12 q=26.0 size=       0kB time=00:00:02.80 bitrate=   0.1kbits/s speed=0.309x    frame=  110 fps= 12 q=-1.0 Lsize=     282kB time=00:00:05.35 bitrate= 432.0kbits/s speed=0.581x    
video:280kB audio:0kB subtitle:0kB other streams:0kB global headers:0kB muxing overhead: 0.658482%
[libx264 @ 0x7f8e7c002800] frame I:12    Avg QP:19.03  size:  4784
[libx264 @ 0x7f8e7c002800] frame P:48    Avg QP:21.35  size:  2790
[libx264 @ 0x7f8e7c002800] frame B:50    Avg QP:21.49  size:  1900
[libx264 @ 0x7f8e7c002800] consecutive B-frames: 36.4%  5.5% 10.9% 47.3%
[libx264 @ 0x7f8e7c002800] mb I  I16..4: 29.7% 57.2% 13.1%
[libx264 @ 0x7f8e7c002800] mb P  I16..4: 19.2% 25.7%  4.7%  P16..4: 24.6%  8.5%  7.9%  0.0%  0.0%    skip: 9.2%
[libx264 @ 0x7f8e7c002800] mb B  I16..4:  2.8%  4.2%  1.0%  B16..8: 32.2% 12.4%  9.1%  direct: 6.8%  skip:31.5%  L0:51.6% L1:41.1% BI: 7.3%
[libx264 @ 0x7f8e7c002800] final ratefactor: 21.47
[libx264 @ 0x7f8e7c002800] 8x8 transform intra:53.5% inter:59.3%
[libx264 @ 0x7f8e7c002800] coded y,uvDC,uvAC intra: 48.2% 28.1% 3.9% inter: 22.6% 20.3% 0.1%
[libx264 @ 0x7f8e7c002800] i16 v,h,dc,p: 13% 61%  8% 19%
[libx264 @ 0x7f8e7c002800] i8 v,h,dc,ddl,ddr,vr,hd,vl,hu:  5% 27% 35%  4%  5%  3%  9%  3%  8%
[libx264 @ 0x7f8e7c002800] i4 v,h,dc,ddl,ddr,vr,hd,vl,hu:  7% 30% 22%  6%  7%  4% 12%  3% 10%
[libx264 @ 0x7f8e7c002800] i8c dc,h,v,p: 55% 37%  2%  6%
[libx264 @ 0x7f8e7c002800] Weighted P-Frames: Y:10.4% UV:4.2%
[libx264 @ 0x7f8e7c002800] ref P L0: 68.1%  6.0% 18.1%  7.2%  0.6%
[libx264 @ 0x7f8e7c002800] ref B L0: 90.4%  7.9%  1.7%
[libx264 @ 0x7f8e7c002800] ref B L1: 97.0%  3.0%
[libx264 @ 0x7f8e7c002800] kb/s:416.47
 i8 v,h,dc,ddl,ddr,vr,hd,vl,hu:  4% 20% 37%  5%  6%  3% 10%  4% 10%
[libx264 @ 0x7fcc1a003e00] i4 v,h,dc,ddl,ddr,vr,hd,vl,hu:  6% 25% 21%  7%  8%  4% 13%  4% 11%
[libx264 @ 0x7fcc1a003e00] i8c dc,h,v,p: 68% 27%  2%  3%
[libx264 @ 0x7fcc1a003e00] Weighted P-Frames: Y:0.0% UV:0.0%
[libx264 @ 0x7fcc1a003e00] ref P L0: 64.9%  3.4% 21.4% 10.3%
[libx264 @ 0x7fcc1a003e00] ref B L0: 87.2% 10.2%  2.6%
[libx264 @ 0x7fcc1a003e00] ref B L1: 96.1%  3.9%
[libx264 @ 0x7fcc1a003e00] kb/s:409.27
